/* XPM */
static char * blue_wall_xpm[] = {
"63 60 17 1",
" 	c #000000",
".	c #0000A4",
"+	c #000088",
"@	c #00007C",
"#	c #000098",
"$	c #000070",
"%	c #000058",
"&	c #202020",
"*	c #0000BC",
"=	c #0000B0",
"-	c #000064",
";	c #0000C8",
">	c #000040",
",	c #0000E0",
"'	c #0000D4",
")	c #00004C",
"!	c #4040FC",
" ...+.@..#@##@##@.@$$% &*.*=@.*#$$#+..+$+.*.+#.**.#$ &=*.#.==#@",
" .#@+###@@.#.-##@$@@$- &**.###$#%$%%@..-$$-$$%$++$-$ &==..@#..%",
" .+.$;;#@@@#++@-%@$%%- &                             &=.=**=.@@",
" .+@.;;-@@@.###+$$@%%> &...................&&&&&&&&&&&=*.=.@@-%",
" .##==...#...##$$-%-$- &.***=.##*##=##=**.. &....##-&&=##.@++--",
" ..#.==.#@-..#++@--%>> &.=*,;=.*.###==...#. &.##+#@- &=##.$+++-",
" .#@#..+#@#$$+++$@@-%> &.=;*;#=..*##.@.@#.@ &.###@@- &=*.#..++>",
" .+++.@@@..$%--$-@@@%> &.===###=....#+-@@@- &..#@@%% &*@@#..#%>",
" #@+.++$#..$$-%---@@%> &.*===##=**..--+@@-% &..#@.@% &*@*.@##%>",
" #+#@@.+-@%@-%-@>%>>-> &.*..====*==.--$.--> &.@+#@%% &**@@--@@>",
" #@#@-++@-@-@->$$>>>-> &.=..#*##.==.##@@%%- &.+++$$- &*@$-@-@@>",
" ##@@@$-%%-@-$->>$>-%> &.=,;++##+@@@+#+@--> &..++$$- &*@@$%%%%>",
" #@#--$-@->>>>>>>>>>>> &.*;;+++..@++@+$@-%> &.@#.%%% &         ",
"                       &.*..#++...++#--@-%> &...#.%- &&&&&&&&&&",
".*=.=.....=.... ===..## .=#.+#....@##@@%%>> &#.#.#$- &.... ****",
"*=.#.*=.+..@.#@ ==#**@* ....*.#...+-$@>>-%> &##@$@$% &.=+@ **.=",
"*=##+..+@##@@## =**=#@@ .=#.*.+@++-@@$>>->> &##%%%-> &.==@ *.==",
"=.#==##@@@#@@@@ =*==##- .=...+.@@-$$%%%--%> &#@%-%%> &.+@% ***=",
".+#=*=@@##@#%@@ =*#@##- ...####@-%--%--%>>> &#@-%%>> &.%-% **==",
"..+#='@#@@--$@@ =#*@@@-                     &             &**..",
"=+@+#.#@@#-$@%% =##-@@% &&&&&&&&&&&&&&&&&&&&&&&&&========&&*..#",
"=.+#@#@##@$@-@% =*#+-%- &====================#.&&=;=;...# &*=##",
"==#+=####@@$%%% .*@++-% &=*=.***=*.=.*=@.***@.% &=;=;;.#+ &**##",
"=.+@+==-@#++$%- .@-$$%- &=*.=;,,*',.*..**....@% &=;;;;.+@ &*=*.",
".#@+.==.#@++$%- #@%%%%- &==.*'',*,''=@.@@.@@.%% &==.;.+.- &***.",
"=#=##.=.-@$$$%%         &=**==;;..''..@@@$.@@%% &=;....+- &***=",
".++..#..-$%-%>> &&&&&&&&&==*===...*...@++@@%%%- &=;;..+@$ &*..*",
".#+...#@$-%--%% &====..&&=..*=++.*=@..@+++$$$%% &=;;##..% &*..=",
"#+#+..@--%%%->- &==+.#+ &=*=*=++...@...$++%$$$> &==;###.% &**##",
"#++@++@--$@@->> &=..#+# &=**.===#.@@@..$%-%-$$> &==.+=..- &*++#",
"#+.#$@@$-$@@-%> &=.#+$- &=*.@.==..@$@-$$$%>>%>> &==;+==#- &*++@",
"#.#++@--%))$-%> &==+=+% &=..*@..#@$@@--$$->>--> &=.;.+##% &**@@",
"@##+@@@@%))%%-> &===$$- &=@*@..@@$-@@@--%%---)> &=;..#%$- &*..#",
"@++@$@@@%%-%%%% &===.%% &=.*@..$--%@@@-%%%%)))> &=;.#@#$% &*..#",
"@+-$@-@@%-%>%-% &=##%+- &=.@..@%%%%----%>>>>>>> &=;.@##@- &*#..",
"@#@-@-$%->>%>>> &=##=%- &                       &.=.@-@@- &*#++",
"@+#+$@$%%%>->%> &==+=+% &&&&&&&&&&&&&&&&&&&&&&&&&.==.@%-> &**++",
"@#+@-$@$>>>>>>> &==++%- &......................&&.=.*.@-> &*##@",
"                &==@@%% &.******=.......#+@*#.@ &.;..*+%> &    ",
"&&&&&%%$$+++@$-&&.=@@@% &=*;;*..==;*##..#@+@+#@ &....++%> &+#++",
"&#.=***********&&..+@@- &=*;;;====**@@@@...##@- &.;.@$%%> &##@@",
"&.*****=.=*...* &..#%-- &=****''===@@@@@@#@@$#- &.=+$-%$> &#@$$",
"&.*==''=***#.** &.#+%%% &=**=*'''@.#@@$$$+@@@@- &..$-$%%> &#$@%",
"&***=''*##.**#= &       &.=*=**''*..#@$$--%@@@- &+@@%%%-> &+@$%",
"&*.=.===###*.++ &&&&&&&&&..=;##*.*....@@--@-%)) &         &+$%-",
"&**=#+==.##.**. &**=..#&&..;;###=...@@#+$--%%>> &&&&&&&&&&&&&&&",
"&**#.*=+.===@.. &*@*+#+ &.***=##***.@@@@---%%>> &====**********",
"&****.+*+=@@.+. &*.==#@ &.=..===****.@+$%---$%) &==..====.+*..@",
"&*.*#..*=#@)@.. &**@.@$ &.*...#.****...%%%%-$$- &=.=''===#...#@",
"&*=##*,*.+.@@.. &*=..@. &.**..*++***...$%%-%))) &=**';;==++.#@-",
"&*.*.,!,##.#+@+ &*=.@.$ &..*##@@@+...@@@--%%%>> &=#*#;;==..@@@%",
"&*=*=*,*.@..))- &*.==@- &..*.++@@@+@+%%##$$%)>> &=*=###..@@@@%-",
"&*.*===+++@$))- &**=#+- &.#**#*@@+@@+@%##+$$-%- &==.###.@$-@%%-",
"&.*==.@@#.##@-- &*=.++@ &.*#.*.+@$$++%%@##@$%%> &==#.##.@$-$@%%",
"&*.*=++=@..#$@% &*.*@@@ &.*...#+..$$%$%%@@@-%%> &==*=+==#@-##%>",
"&*.*.#+@-+..#$- &**.--- &...##@+...$-$$%)))->>> &**=+.===#@##@>",
"&=.+++.-)-+##$$ &*=.@$% &.=.##*.@..%%$$-%>>%>>> &*=.+..==#@@@@>",
"&=.$-+-.@@#%-%% &=.---% &.=*@**.%---%%)))>>)%>> &*=.*..@+$$@@%>",
"&..++-+%-%-$-$- &=.+$-- &..=*.@#%---%%>>$$->)>% &***#.@@$@@$->-",
"&.#@@@@@$$$$@@@&&.+@@@@&&..#.#@@@@@@$-%%@@@@%%$&&*..@#.@@@@@$$@"};
