/* XPM */
static char * red_wall_xpm[] = {
"63 60 25 1",
" 	c #484848",
".	c #EC0000",
"+	c #C80000",
"@	c #B00000",
"#	c #D40000",
"$	c #880000",
"%	c #A40000",
"&	c #640000",
"*	c #2C2C2C",
"=	c #545454",
"-	c #BC0000",
";	c #7C0000",
">	c #980000",
",	c #700000",
"'	c #383838",
")	c #580000",
"!	c #400000",
"~	c #4C0000",
"{	c #202020",
"]	c #5C5C5C",
"^	c #646464",
"/	c #404040",
"(	c #343434",
"_	c #4C4C4C",
":	c #303030",
" .+@@#$%#$+%&* =.-$-$-$-;->->-;-;-+%,* '#%+@+@@+,+;+@+$@%;+>+%;",
" #%;%$%>,%$,&* =#-$$%$,%%,>%%,>%,%>,)* =#%%;&%$,$%;$%%$%;$%)%,&",
" #;%%,>%%,%)!* =#$-%$%,%$%,%,$;%,>;,)*  #,%&$%&%,%;%$%&%>;%;%,~",
" +%;$>;%,$%,!* =--$%$$>%,$,%$,>;$,%,!*' -,%;%$&%,,%%,%$%%;%)%$~",
" -;%%,%>,>,)!*  -+$%,%,%,%,>$,;%,>;,)*' ->%&$%;$,$;%$%&%;$%;%,!",
" -%,$),;),$,!*'=>>,,~$,,$,~,$,$,~$,,!*' -,,),,~$~,)$~,~$&~,$,$!",
" ;&&&!!!!!!!!*' ;&&)))))))))!!!!!!!!!*' $&&&&&&&&&&)))))))))!!!",
"  ********{{{*'= *****{{{{{**{{{{***** ='***********{{{{{******",
"=''''    ''''' '       '''=   ''      =' ====]^^]==  /'/='=   =",
".###-----------% = ..######+++++++------------------% /=..#####",
"@$$@>;@;>$@&@$%!' =.,@+;-&$-$$+>%$;$%$%$%;+&+$>-+>+%!' '.+;@$@$",
"$%$%;$$&%$&$%%,!*  #@,%;%%$%&%,&$%;%;%&%%$&%$%,$%,%,!' =+@;%$;%",
",%%$>&%;$$>&%$,!*' #,%$>$$&$$,%$&%$;&;$$%)$;%,%,%%,,!*/ +;%%%;%",
"%$$%$;;$;%>&%&,!*' #,%%;%&$%&,%&$%;$;%&%$)%&%,$,%,%,!*' +@;%;%>",
",%&%,$;>&%&$%%,!* =#@)%;%$&$)$,&%$;);%&$)$%&$%,$%,%,!{' @;%%)%;",
",@&,~;,>,>,)>,,!* =@%,$),>,$&,$),>,>&$,$$)>,,$~,>,$,!{/=@%;,),>",
"!~~~~~~~~~~~~!!!' =%&&&&&&&&&&&&&))))))))))))))))))!!{ '%&!&!!&",
"***{***{{{***{{*' ' '(******((''(***{{{{{***{{{{*****' = ******",
"== '' ='='  ''''  =   /'/'/'/   ='= /'''//  =/''/   = ='=/'/=  ",
"=..#######-----------------% ==..##########-------------------%",
"=.$@-;-;-;@$@$@+$@$@$-@&@+,!' =.-,#%@$%@$@>@;&%$,$%;$%>$%;$%)%!",
"'.@$%>%;,$%%$>$%$&%,%$&$%,@!* ]#->%&%&$,>$&%&$%&%,%;%$%&%>;%;,!",
" -&%%,$)%&%,%$>%&$%,$%$&;%,!*=^#-;%;%&%,>%;%;%$&%,,%>,>$%%;%),!",
" -@$%~%),$%$,;%;$&;%&%$&%,)!*=]#,%,>$&$>,%&$&$%;$,$;%$%&%;$%;,!",
"=-,&%~$;%&%)%&%$&$%$&%&$;;@!* =#+,%,%$%$,%&%),,~%~%)%~%%$&~,$,!",
" +%&,,,),~,,$&$,,$,,&,>,>,,!*'=+%,>,$),,,,&$,$~%),%~,$~%)%~%,,!",
" %>&&&&&&&&&&&&&&~~~~~~~~~!!*'=%&&&&&&&&&&&&&&))))))))))))!);)!",
"  '*****************'''******   ********{{{{{*'''*{{{**********",
"=====  ' ''' =^^===   //''/''/=   ='= = /'/'/ ==  /'/   ='=   =",
"----------% '=########-----------------% ==+.#########---------",
"%@%@>+@@+%!' '#%&%,%%&%$%%,%$&%%&%%,%;%!' =#%;%,%%&%;$;%,%$%;%,",
"%;$%>%;%$,!* =#&%;$%;%>,%$$,$$%$&%,$%&%!'==#%)%,%$&%$%;$$>,>;>$",
"$;%>;%;>%,!* '#&%%;>%,%,%$%)%~$$%$,>%;%!'=^#%;%,%$%$%%;%,>$%>;%",
"%$;%>%>;$,!' =#>&%;%;)>$$$,$%&%$&$>,$%;!'=^#;%%,%&%%;;%;%$>>$;,",
"%$;%;%;>%,!'  #&%;)>%,$$%$%,$~&>&%>,%;%!' =+%;%%,%$$;%;%,>$%;$%",
",,$>,,>,,,!'  >&%%)%;,%,%&%)$&%$&>,>%&;!* =+%)%,%%$%$%;%,>,>;%%",
"!!~~~~~~~!!*  %&&&&&&&&&))))))))))))))!!*  %&&&&&&&&&&&&&&&))))",
"************ = *{{{{**'''*{{{{{*********'   ****'' '**{{{******",
"= =' ''  ''''  '''     ==  '''=   =' ' '  = ='= =]^=_  '= = ='=",
"'.#######----------------------%'='..########-----------------%",
"=#%$$%&%%;>%;%,$%&%;%$%&%&%%;,%!' =.%%&%&%)%,%)%$)>$,%$;%;>,$%!",
" #%&%$&%$>;%&$)%>&%)$>$&%;%;%,>!*  #$%&$&;)$)>;%)%&%,$,%$;>%&$!",
" #$&%&$,&%&%$;$%&>$$);%~>)$&$$,!*' #$%&&$%;)%;)>%)%,,%,%;%,$&%!",
"'#%$%$&%$;>%;%)$%&%)$%)>%;%%%,;!*' #%&%$&%)%,>;;)$&%;$>$>;,%$%!",
"=#%&$%&%&%&%&%,%&&%)$;%;$&>&$,%!{'=#%&&%&;)%)%)>)%&$,%,;%;>$&,!",
"'+%&%&$,$>;%$$$%>&$;)&%~%,>;%,%!{'=+,%&$&%);%;)>,$&%,%,%;>,%&%!",
"=%&&&&&&&&&~~~~~~~~~~~~~~~~~~~~!* =%&&&&&&&&&)))))~~~~~~~~~~~!!",
"' **********'''*{{{{***{{{{**{{** ' ******{{{*('(*{****{{{*****",
"='='= =    =^^= ='= = /'''/ =  '  ='=        _===_    ':{{:'  =",
"#####------------% = ..########---------------% '=.#####-------",
";%)%%&>&%;+;%&%;%!*  #%%%%&%~%;%&%&%>%&%&%)%,&!' =#%&$%)%,%,%&%",
"%;;%;%&>;&%);&$&$!*  #;%,%&,~;>;%$&$>&;$,$)%&%!( =#&%)%,%,$%,%$",
"%;);%&>&;%;)%$&>;!* /#;;,%&;;%)%~%%&%&%&$)$$&,!* =#&%,,%%$,$,&,",
";>)>&&%&%;%);,&%&!* /#%~,%&%~%;>&%&$;&%&%$),>&!* =#%&)%$,,%,%&,",
"&%;%&%&$%&%;)$%;$!* /#~%%&%;,$);~%&%&;;&$,)$,&!*  #&%$%,%$,,)%,",
"&%;;&>>&>&;)%&%&>!*  #~%,%&;;$~>&$~%;&%$&%)%)$!*' #&%),)%,%,)&%",
";>)%&&$&;;%)%&,$;!* =+%~,%&%~$&%&%,&%&;%&$,$&$!*' +&&)%)%,%,%&%",
"~~~~~~~~~~~~~~~~!!*  %!!!!!~~~~~~~~~~~~~~~~~~!!{ =%!!~~~~~~~~~~",
"******************* = '((**************{{{{{*{{{'  ******{{{{{*",
"'='='''     =='    =====   =   =  '   /''/''/ /'/=  '=    /'/  "};
