/* XPM */
static char * wood_wall_xpm[] = {
"62 61 8 1",
" 	c #543C1C",
".	c #382C14",
"+	c #28200C",
"@	c #483818",
"#	c #6C4824",
"$	c #744C28",
"%	c #905C34",
"&	c #5C4020",
"      . +.              . +.    . +.      . +.           . +. ",
"@#$$$$ %+ %&@@@@$$@#@#@@ %+ %$@$ %+ %&@@@& %+ %@$@@$@$@$$ %+ %",
"@#$$$& %+ %#@@@ $$@#@#@@ %+ %$@$ %+ %$&@&$ %+ %@$@@$@$@$$ %+ %",
"@&$$$  %+ %$ @@ $$@#@#@@ %+ %#@$ %+ %$$&$$ %+ %@$@@$@$@$$ %+ %",
"@ #$$  %+ %$ @@&$#@#@#@@ %+ %#@$ %+ %$$$$$ %+ %@$@@$@$@$$ %+ %",
"@@&$&@ %+ %$&@ #$#@#@#@@ %+ %#@$ %+ %$$$$$ %+ %@$@@$@$@#$ %+ %",
"@ @& @ %+ %$#@&$$&@#@#@@ %+ %&@$ %+ %$$$$$ %+ %@$@@$@$@#$ %+ %",
" @@ @@ %+ %$$&#$$&@#@#@@ %+ %&@$ %+ %$$$$$ %+ %@$@@$@$@&$ %+ %",
" @@@@  %+ %$$#$$$ @#@#@@ %+ %@@$ %+ %$$$$$ %+ %@$@@$@$@&$ %+ %",
"$@@@ $ %+ %$$#$$$ @#@#@@ %+ %@&$ %+ %#$$$$ %+ %@$@@$@$ @$ %+ %",
"$ @@ $ %+ %$$$$$#@@#@#@@ %+ %@&$ %+ %#$$$# %+ %@$@@$@$ @$ %+ %",
"$$@ $$ %+ %$$$$$#@@#@#@@ %+ %@$$ %+ %&$$$# %+ %@$@@$@$ @$ %+ %",
"$$$ $& %+ %#$$$$#@@#@#@@ %+ %&$$ %+ %@#$#& %+ %@$@@$@$ @$ %+ %",
"#$$&$  %+ %#$$$$&@@#@#@@ %+ %&$# %+ %@&#&@ %+ %@$@@$@$&@$ %+ %",
"#$$$$  %+ %&$$$$&@@#@#@@ %+ %$$# %+ %@@&@@ %+ %@$@@$@$&@# %+ %",
"&#$$$@ %+ %&$$$$ @@#@#@@ %+ %$$& %+ %@@@@@ %+ %@$@@$@$#@# %+ %",
" #$$&@ %+ % #$$$ @ #@#@@ %+ %$#& %+ %@@@@@ %+ %@$@@$@$#@# %+ %",
"@&$$ @ %+ % #$$#@@ #@#@@ %+ %$#@ %+ %@@@@@ %+ %@$@@$@$#@& %+ %",
"@ $$ @ %+ %@&$$#@@ #@#@@ %+ %$&@ %+ %&@@@& %+ %@$@@$@$$@& %+ %",
"@ & @@ %+ %@&$$&@@&#@#@@ %+ %#@@ %+ %#&@&# %+ %@$@@$@#$@@ %+ %",
"@@ @@  %+ %@ ##&@@&#@#@@ %+ %&@@ %+ %$#&#$ %+ %@$@@$@#$ @ %+ %",
"@@@@@  %+ %@ && @@&&@#@@ %+ %@@@ %+ %$$#$$ %+ %@$@@$@&$ @ %+ %",
"@@@@@# %+ %@@  @@@# @#@@ %+ %@@@ %+ %$$$$$ %+ %@$@@$@&$&@ %+ %",
"@@@@@# %+ %@@@@@@@# @#@@ %+ %@@  %+ %$$$$$ %+ %@$@@$@ $&@ %+ %",
" @@@ & %+ %@@@@@@ $@@#@@ %+ %@@  %+ %$$$$$ %+ %@$@@$@ $#  %+ %",
" @@@   %+ %@@@@@@&$@@#@@ %+ %@@& %+ %#$$$$ %+ %@$@@$@ $#  %+ %",
"#@@@#  %+ %@@@@@@&$@@#@@ %+ %@@# %+ %#$$$$ %+ %@$@@$@@$$&@%+ %",
"# @@#@ %+ %@@@@@@#$@@#@@ %+ %@ # %+ %&$$$# %+ %@$@@$@@$$& %+ %",
"& @#&@ %+ % @@@@@#$@@#@@ %+ %@&$ %+ %&#$$# %+ %@$@@$@@#$# %+ %",
" # # @ %+ %&@@@@ $#@ #@@ %+ % #$ %+ %@#$$& %+ %@$@@$@@#$# %+ %",
" # # @ %+ %# @@@&$#@ #@@ %+ %&$$ %+ %@&$#@ %+ %@$@@$ @&$$ %+ %",
"@&#&@@ %+ %$&@@ &$&@&#@@ %+ %#$$ %+ %@@#&@ %+ %@$@@$ @&$$ %+ %",
"@ & @@ %+ %$# @ $$ @&#@@ %+ %$$$ %+ %@@&@@ %+ %@$@@$ @ $$ %+ %",
"@@ @@@ %+ %$$&@&$$ @&#@@ %+ %$$# %+ %@@@@@ %+ %@$@@$ @ $$ %+ %",
"@@@@@@ %+ %$$$&$$$@@##@@ %+ %$$# %+ %@@@@@ %+ %@$@@$&@ $$ %+ %",
"@@@@@  %+ %$$$$$$#@@##@@ %+ %$$& %+ %@@@@@ %+ %@$@@$&@@#$ %+ %",
"@@@@@  %+ %#$$$$$#@@$#@@ %+ %$#& %+ %&@@@@ %+ %@$@@$#@@#$ %+ %",
"@@@@@& %+ %#$$$$$&@@$#@@ %+ %$#@ %+ %&@@@@ %+ %@$@@##@@&$ %+ %",
" @@@ & %+ %&$$$$$ @@$&@@ %+ %$&@ %+ %#&@@& %+ %@$@@#$@@&$ %+ %",
" @@@ # %+ % $$$$$@@@$&@@ %+ %#&@ %+ %$&@&& %+ %@$@@&$ @ # %+ %",
"& @ &# %+ %@#$$$#@@ $@@@ %+ %#@@ %+ %$#&&# %+ %@$@@&$ @ # %+ %",
"#   #& %+ %@&$$$&@@&$@@@ %+ %&@@ %+ %$$&#$ %+ %@$@@ $ @ & %+ %",
"#& &#  %+ %@ #$# @@#$@@@ %+ %@@@ %+ %$$#$$ %+ %@$@@ $&@@& %+ %",
"##&##  %+ %@@ #&@@@#$@@@ %+ %@@  %+ %$$$$$ %+ %@$@@ $& @  %+ %",
"##&##@ %+ %@@@  @@@$#@@@ %+ %@@  %+ %$$$$$ %+ %@$@@ $# @  %+ %",
"#$$$#@ %+ % @@@@@@ $#@@@ %+ %@@& %+ %$$$$# %+ %@$@@@$# @  %+ %",
"&$$$#@ %+ % @@@@@@&$&@@@ %+ %@ # %+ %#$$$# %+ %@$@@@#$&@@ %+ %",
" #$$#@ %+ %&@@@@@@#$&@@@ %+ %@&$ %+ %#$$$& %+ %@$@@@#$& @ %+ %",
" #$$&@ %+ %# @@@@@#$@@@@ %+ % #$ %+ %&$$$& %+ %@$@@@&$# @ %+ %",
"@&$#&@ %+ %$ @@@@ $#@@@@ %+ %#$$ %+ %&$$#  %+ %@$@@@&$#&@ %+ %",
"@ ## @ %+ %$&@@@@&$#@@&@ %+ %$$$ %+ % #$#  %+ %@$ @@ #$&  %+ %",
"@ #& @ %+ %## @@@#$&@@&@ %+ %$$$ %+ % #$&@ %+ %@$ @@ &$#  %+ %",
"@@&&@@ %+ %#$ @@ #$@@@#@ %+ %$$$ %+ %@&# @ %+ %@$ @@@&$#  %+ %",
"@@  @@ %+ %&$# @ $$@@@#@ %+ %$$$ %+ %@ &@@ %+ %@$ @@@ #$  %+ %",
"@@@@@  %+ %@#$# $$#@@@#@ %+ %$$$ %+ %@@ @@ %+ %@#&@@@ &$# %+ %",
"@@@@@  %+ %@&$$$$$&@@@$@ %+ %$$# %+ %@@@@@ %+ %@##@@@@&$# %+ %",
"@@@@@# %+ %@@$$$$#@@@&$@ %+ %$$# %+ %@@@@@ %+ %@&# @@@ ## %+ %",
" @@@ # %+ %@@&#$#&@@@#$@ %+ %$#& %+ %@@@@@ %+ %@&$ @@@@&& %+ %",
" @@@ # %+ %@@@&#&@@@@#$@ %+ %$#& %+ %@@@@@ %+ %@@$ @@@@@  %+ %",
"&@@@ # %+ %@@@@&@@@@#$$& %+ %#&@ %+ %@@@@@ %+ %&@$&@@@@@@ %+ %",
"&&&&&& %+ %&@@@@@@@&&&&& %+ %&@@ %+ %&@@@& %+ %&@&&@@@@@@ %+ %"};
